Coordinates
version=1
nRows=20
nColumns=38
inDegrees=no

Units are S.I. units (second, meters, Newtons, ...)
If the header above contains a line with 'inDegrees', this indicates whether rotational values are in degrees (yes) or radians (no).

endheader
time	pelvis_tilt	pelvis_list	pelvis_rotation	pelvis_tx	pelvis_ty	pelvis_tz	hip_flexion_r	hip_adduction_r	hip_rotation_r	knee_angle_r	ankle_angle_r	subtalar_angle_r	mtp_angle_r	hip_flexion_l	hip_adduction_l	hip_rotation_l	knee_angle_l	ankle_angle_l	subtalar_angle_l	mtp_angle_l	lumbar_extension	lumbar_bending	lumbar_rotation	arm_flex_r	arm_add_r	arm_rot_r	elbow_flex_r	pro_sup_r	wrist_flex_r	wrist_dev_r	arm_flex_l	arm_add_l	arm_rot_l	elbow_flex_l	pro_sup_l	wrist_flex_l	wrist_dev_l
20	2.89815	1.37928	-1.18774	0.729223	-0.195843	0.946719	-0.239968	0.0627838	0.0771175	0.118693	-0.26157	0	0	-0.0811811	-0.166982	-0.0898487	0.511607	-0.0846113	0	0	-0.363564	0.0467911	0.0330576	0.320586	-0.628428	0.034716	1.72181	1.5708	0	0	0.700059	-0.435179	0.578541	1.50838	1.5708	0	0
20.01	2.9086	1.37874	-1.19351	0.729284	-0.196975	0.946946	-0.241884	0.0635935	0.0740696	0.114107	-0.263981	0	0	-0.0722752	-0.16588	-0.0857963	0.52444	-0.0847864	0	0	-0.366172	0.0480655	0.0275282	0.330383	-0.626537	0.0413433	1.71785	1.5708	0	0	0.704755	-0.4358	0.57758	1.5032	1.5708	0	0
20.02	2.91539	1.37827	-1.19611	0.729384	-0.198265	0.94705	-0.243533	0.0620904	0.0776682	0.109559	-0.267294	0	0	-0.0616846	-0.165444	-0.0821388	0.541293	-0.0835433	0	0	-0.368562	0.0483381	0.0239877	0.33736	-0.625326	0.0446921	1.7143	1.5708	0	0	0.712108	-0.434639	0.579297	1.49642	1.5708	0	0
20.03	2.92337	1.37772	-1.20043	0.729327	-0.199577	0.947215	-0.24364	0.0629833	0.0734294	0.108505	-0.268654	0	0	-0.0522145	-0.163943	-0.0786004	0.556527	-0.0825775	0	0	-0.371475	0.0483999	0.0216963	0.342467	-0.624426	0.0454669	1.71227	1.5708	0	0	0.719935	-0.432283	0.581516	1.48927	1.5708	0	0
20.04	2.93031	1.37747	-1.20411	0.729291	-0.200847	0.947343	-0.243815	0.062514	0.0727136	0.106882	-0.269561	0	0	-0.0429752	-0.16208	-0.0752516	0.571446	-0.0814088	0	0	-0.374138	0.0481946	0.0202214	0.346068	-0.623122	0.0443941	1.71114	1.5708	0	0	0.728125	-0.429632	0.584372	1.48209	1.5708	0	0
20.05	2.93661	1.37748	-1.20738	0.729187	-0.202094	0.947464	-0.244291	0.0619578	0.0741871	0.103664	-0.270801	0	0	-0.0344124	-0.159565	-0.0717388	0.585067	-0.0802947	0	0	-0.376408	0.0479829	0.0190105	0.349127	-0.621754	0.0427753	1.71024	1.5708	0	0	0.736272	-0.426734	0.58745	1.47462	1.5708	0	0
20.06	2.94147	1.37743	-1.20946	0.729013	-0.203287	0.947579	-0.244793	0.0614697	0.0761234	0.100129	-0.272694	0	0	-0.026606	-0.156855	-0.068101	0.598139	-0.0790777	0	0	-0.378414	0.0480094	0.0180478	0.351947	-0.620622	0.0412096	1.70933	1.5708	0	0	0.744416	-0.423748	0.590922	1.46694	1.5708	0	0
20.07	2.94597	1.377	-1.2115	0.728839	-0.204462	0.947744	-0.245269	0.0611294	0.0780784	0.0973904	-0.274802	0	0	-0.0200385	-0.15395	-0.0644123	0.609727	-0.0777704	0	0	-0.380962	0.0479553	0.0176275	0.354422	-0.619868	0.0393391	1.70875	1.5708	0	0	0.753131	-0.420738	0.595124	1.45931	1.5708	0	0
20.08	2.94983	1.3765	-1.21338	0.728657	-0.205645	0.947946	-0.245158	0.0608576	0.0804695	0.0961277	-0.276513	0	0	-0.0143177	-0.150746	-0.0604527	0.619651	-0.07683	0	0	-0.383755	0.047928	0.0177046	0.35679	-0.619027	0.0371948	1.70828	1.5708	0	0	0.761978	-0.417803	0.59956	1.45175	1.5708	0	0
20.09	2.9523	1.37594	-1.21429	0.728437	-0.20682	0.948183	-0.244228	0.0607242	0.0832126	0.0968664	-0.277554	0	0	-0.00935832	-0.147371	-0.056153	0.627886	-0.0764883	0	0	-0.386659	0.0482085	0.0181847	0.359188	-0.618093	0.0349111	1.70785	1.5708	0	0	0.77046	-0.414792	0.60362	1.44422	1.5708	0	0
20.1	2.95125	1.37578	-1.21231	0.728343	-0.207858	0.948347	-0.243525	0.0594057	0.0909407	0.0960605	-0.278713	0	0	-0.00482897	-0.144654	-0.0527354	0.633963	-0.0763329	0	0	-0.38872	0.0485429	0.0192541	0.361434	-0.617269	0.0331183	1.70729	1.5708	0	0	0.778298	-0.41186	0.607303	1.43689	1.5708	0	0
20.11	2.95269	1.37569	-1.21328	0.728054	-0.208874	0.948501	-0.240196	0.0604927	0.0881208	0.101264	-0.278127	0	0	-0.00155489	-0.140839	-0.0496636	0.638261	-0.0761721	0	0	-0.390856	0.0487407	0.020354	0.364496	-0.617338	0.0322894	1.70652	1.5708	0	0	0.78538	-0.40858	0.60991	1.4296	1.5708	0	0
20.12	2.95344	1.3758	-1.2142	0.727805	-0.209872	0.948647	-0.236732	0.0598983	0.0891861	0.106611	-0.276687	0	0	0.00103536	-0.136891	-0.0472815	0.641525	-0.076027	0	0	-0.392843	0.0489098	0.0217125	0.368236	-0.617513	0.0321199	1.70541	1.5708	0	0	0.791561	-0.405359	0.611365	1.42272	1.5708	0	0
20.13	2.95458	1.37632	-1.21611	0.727562	-0.210813	0.948757	-0.232526	0.059092	0.0900139	0.112735	-0.274509	0	0	0.00280845	-0.132547	-0.0463353	0.642949	-0.0759162	0	0	-0.394341	0.0486629	0.0231897	0.372217	-0.617523	0.032211	1.70372	1.5708	0	0	0.796742	-0.402185	0.612093	1.41631	1.5708	0	0
20.14	2.95467	1.3775	-1.21746	0.727337	-0.211622	0.948773	-0.227711	0.058175	0.0914986	0.118677	-0.27179	0	0	0.00408294	-0.128274	-0.0470973	0.642534	-0.0754486	0	0	-0.394672	0.0480783	0.0248818	0.375852	-0.617407	0.0322679	1.70138	1.5708	0	0	0.801405	-0.399261	0.613165	1.41028	1.5708	0	0
20.15	2.94318	1.37584	-1.20657	0.727684	-0.212099	0.949107	-0.268614	0.0597095	0.0566896	0	-0.35035	0	0	0.00200822	-0.129606	-0.050869	0.639612	-0.075898	0	0	-0.396402	0.048966	0.027571	0.376984	-0.615304	0.0295921	1.69816	1.5708	0	0	0.808025	-0.397065	0.618023	1.40361	1.5708	0	0
20.16	2.94773	1.3737	-1.21152	0.727352	-0.212781	0.949322	-0.269064	0.0582058	0.0670606	0	-0.362642	0	0	-0.00287263	-0.126201	-0.0536793	0.634181	-0.0759603	0	0	-0.400418	0.0487425	0.0281489	0.381083	-0.615095	0.0291821	1.69545	1.5708	0	0	0.813841	-0.395432	0.621002	1.39918	1.5708	0	0
20.17	2.94932	1.37179	-1.21378	0.726945	-0.213397	0.949539	-0.265228	0.0584032	0.063738	0.010092	-0.364781	0	0	-0.00827461	-0.123351	-0.0575456	0.626922	-0.0761264	0	0	-0.403898	0.049058	0.0291411	0.384351	-0.615015	0.028242	1.69298	1.5708	0	0	0.819625	-0.39356	0.624541	1.39466	1.5708	0	0
20.18	2.94769	1.37081	-1.2131	0.72655	-0.213969	0.949643	-0.263798	0.0584248	0.0609045	0.0140478	-0.364372	0	0	-0.0129667	-0.120888	-0.061995	0.618771	-0.0758894	0	0	-0.405875	0.0493987	0.0301488	0.387405	-0.61508	0.0275719	1.68998	1.5708	0	0	0.825107	-0.391866	0.628638	1.39015	1.5708	0	0
20.19	2.94479	1.37028	-1.21085	0.726122	-0.214444	0.949683	-0.263992	0.0585152	0.0589303	0.0127649	-0.36487	0	0	-0.0175277	-0.118777	-0.0667603	0.610004	-0.0761394	0	0	-0.406901	0.0497652	0.030611	0.390389	-0.615075	0.0271017	1.68617	1.5708	0	0	0.829786	-0.39036	0.63281	1.38609	1.5708	0	0
